<svg xmlns="http://www.w3.org/2000/svg" width="205" height="57" viewBox="0 0 205 57">
    <defs>
        <linearGradient id="a" x1="1.713%" x2="50%" y1="37.815%" y2="47.129%">
            <stop offset="0%" stop-color="#0056E2"/>
            <stop offset="100%" stop-color="#0070EB"/>
        </linearGradient>
        <linearGradient id="b" x1="19.282%" x2="44.846%" y1="32.139%" y2="58.119%">
            <stop offset="0%" stop-color="#0056E2"/>
            <stop offset="100%" stop-color="#0070EB"/>
        </linearGradient>
    </defs>
    <g fill="none" fill-rule="evenodd">
        <path fill="#0070EB" d="M29.697 1.815c13.465 0 26.33 2.728 26.33 18.26 0 16.475-15 19.516-24.796 19.516H17.74v15.196H0V1.815h29.697zm-1.644 13.142H17.74v10.235h10.313c7.354 0 9.83-1.218 9.83-5.118 0-3.9-2.476-5.117-9.83-5.117z"/>
        <path fill="url(#a)" d="M37.585 22.054l8.795 14.45c-4.803 2.417-10.55 3.087-15.15 3.087H17.74v-14.4h10.313c5.925 0 8.684-.79 9.532-3.137z"/>
        <path fill="#0070EB" d="M60.541 1.815h18.733v52.972H60.541zM163.371 1.815v20.112l16.826-20.112h20.29l-20.505 24.616 23.51 28.356h-21.847l-12.481-15.366-5.793 6.957v8.41h-16.898V1.814zM83.788 27.493C83.788 9.553 96.182 0 113.238 0c16.925 0 27.66 8.526 28.684 23.402h-16.928c-1.148-5.582-5.165-9.27-11.393-9.27-7.145 0-11.468 4.996-11.468 13.487 0 8.492 4.728 13.565 11.468 13.565 4.475 0 9.418-2.2 10.822-8.449h17.536c-1.598 15.13-11.424 23.868-28.721 23.868-16.785 0-29.45-11.17-29.45-29.11z"/>
        <path fill="url(#b)" d="M179.982 26.431l23.51 28.356h-21.847l-12.48-15.366 10.817-12.99z"/>
    </g>
</svg>
